<svg width="140" height="76" viewBox="0 0 140 76" fill="none" xmlns="http://www.w3.org/2000/svg">
<g clip-path="url(#clip0_113_59)">
<mask id="mask0_113_59" style="mask-type:luminance" maskUnits="userSpaceOnUse" x="1" y="1" width="138" height="73">
<path d="M1.96851 37.7554C1.96851 57.5199 32.4279 73.5425 69.9999 73.5425C107.572 73.5425 138.032 57.5199 138.032 37.7554C138.032 17.9911 107.572 1.96829 69.9999 1.96829C32.4279 1.96829 1.96851 17.9911 1.96851 37.7554Z" fill="white"/>
</mask>
<g mask="url(#mask0_113_59)">
<path d="M1.96851 37.7554C1.96851 57.5199 32.4279 73.5425 69.9999 73.5425C107.572 73.5425 138.032 57.5199 138.032 37.7554C138.032 17.9911 107.572 1.96829 69.9999 1.96829C32.4279 1.96829 1.96851 17.9911 1.96851 37.7554Z" fill="url(#paint0_radial_113_59)"/>
</g>
<mask id="mask1_113_59" style="mask-type:luminance" maskUnits="userSpaceOnUse" x="-1" y="-3" width="142" height="81">
<path d="M-0.866211 -2.1066H140.866V77.6177H-0.866211V-2.1066Z" fill="white"/>
</mask>
<g mask="url(#mask1_113_59)">
<path d="M69.9999 70.8857C106.104 70.8857 135.374 56.0528 135.374 37.7556C135.374 19.4587 106.104 4.62552 69.9999 4.62552C33.8954 4.62552 4.62598 19.4587 4.62598 37.7556C4.62598 56.0528 33.8954 70.8857 69.9999 70.8857Z" fill="#777BB3"/>
</g>
<mask id="mask2_113_59" style="mask-type:luminance" maskUnits="userSpaceOnUse" x="-1" y="-3" width="142" height="81">
<path d="M-0.866211 -2.1066H140.866V77.6177H-0.866211V-2.1066Z" fill="white"/>
</mask>
<g mask="url(#mask2_113_59)">
<path d="M38.9307 41.863C41.8995 41.863 44.1158 41.3155 45.5181 40.2362C46.9054 39.1681 47.8635 37.3174 48.3657 34.736C48.834 32.3231 48.6556 30.6383 47.8357 29.7291C46.9974 28.8005 45.1849 28.3295 42.4487 28.3295H37.7043L35.0742 41.863H38.9307ZM23.4133 58.5337C23.1931 58.5337 22.9839 58.4353 22.8439 58.265C22.7036 58.095 22.6468 57.871 22.6889 57.6548L29.6593 21.7909C29.7268 21.4442 30.0306 21.1937 30.384 21.1937H45.4071C50.1285 21.1937 53.6428 22.4757 55.8517 25.0045C58.0724 27.5465 58.7582 31.0999 57.8898 35.5657C57.5365 37.3851 56.9287 39.0748 56.0835 40.5876C55.2373 42.1021 54.1189 43.5035 52.7589 44.7534C51.131 46.2771 49.2885 47.3819 47.2875 48.032C45.3183 48.6735 42.7892 48.9988 39.7708 48.9988H33.6876L31.9504 57.9363C31.883 58.2832 31.5794 58.5337 31.226 58.5337H23.4133Z" fill="black"/>
<path d="M38.3128 29.0678H42.4486C45.751 29.0678 46.8982 29.7924 47.2879 30.2243C47.9346 30.9413 48.0566 32.4531 47.641 34.5961C47.174 36.9952 46.3084 38.6962 45.0677 39.6514C43.7975 40.6293 41.7326 41.1249 38.9307 41.1249H35.9696L38.3128 29.0678ZM45.407 20.4556H30.3837C29.677 20.4556 29.0695 20.9566 28.9346 21.6502L21.9642 57.5141C21.88 57.9469 21.9937 58.3945 22.274 58.7348C22.5545 59.0751 22.9723 59.272 23.4132 59.272H31.2257C31.9327 59.272 32.5402 58.771 32.675 58.0773L34.2961 49.737H39.7707C42.8667 49.737 45.473 49.3994 47.5165 48.7338C49.6182 48.051 51.5517 46.8933 53.2631 45.2929C54.6784 43.9907 55.8443 42.5291 56.7276 40.9482C57.6113 39.3667 58.2461 37.6032 58.6144 35.7066C59.5286 31.0058 58.786 27.2415 56.4075 24.5191C54.0522 21.8227 50.3509 20.4556 45.407 20.4556ZM34.1785 42.6012H38.9307C42.0805 42.6012 44.4267 42.008 45.9683 40.8212C47.5101 39.6342 48.55 37.6532 49.0904 34.8771C49.6073 32.2117 49.3718 30.3308 48.3839 29.2351C47.3947 28.1394 45.4166 27.5914 42.4486 27.5914H37.0958L34.1785 42.6012ZM45.407 21.932C49.9265 21.932 53.2235 23.118 55.2958 25.4903C57.3679 27.8626 57.9919 31.1738 57.1651 35.4251C56.8248 37.1763 56.2493 38.7774 55.439 40.228C54.6277 41.6795 53.5684 43.0067 52.2594 44.2102C50.6994 45.6701 48.9663 46.7105 47.0594 47.3301C45.1524 47.9514 42.7235 48.2607 39.7707 48.2607H33.0788L31.2257 57.7956H23.4132L30.3837 21.932H45.407Z" fill="white"/>
<path d="M75.8027 48.999C75.5822 48.999 75.3733 48.9006 75.2333 48.7303C75.0928 48.5603 75.036 48.3366 75.078 48.1201L78.1615 32.2518C78.4548 30.7427 78.3824 29.6595 77.958 29.2018C77.6981 28.922 76.9176 28.4528 74.6098 28.4528H69.0237L65.147 48.4016C65.0795 48.7485 64.7757 48.999 64.4223 48.999H56.6713C56.4509 48.999 56.242 48.9006 56.1017 48.7303C55.9614 48.5603 55.9046 48.3364 55.9467 48.1201L62.9171 12.2562C62.9846 11.9095 63.2885 11.659 63.6418 11.659H71.3928C71.6132 11.659 71.8221 11.7575 71.9624 11.9275C72.1027 12.0978 72.1595 12.3214 72.1174 12.538L70.4353 21.194H76.4447C81.0227 21.194 84.127 22.001 85.9351 23.6615C87.7781 25.3554 88.3531 28.0638 87.6445 31.7124L84.4014 48.4016C84.3339 48.7485 84.0303 48.999 83.6767 48.999H75.8027Z" fill="black"/>
<path d="M71.393 10.9204H63.642C62.9351 10.9204 62.3275 11.4214 62.1927 12.1151L55.2222 47.9789C55.1381 48.4118 55.2517 48.8594 55.5323 49.1997C55.8128 49.54 56.2306 49.7368 56.6715 49.7368H64.4225C65.1292 49.7368 65.737 49.2358 65.8718 48.5422L69.6324 29.1906H74.61C76.9139 29.1906 77.3974 29.6827 77.4168 29.7039C77.5566 29.8542 77.7404 30.5506 77.437 32.1106L74.3536 47.9789C74.2694 48.4118 74.3831 48.8594 74.6636 49.1997C74.9441 49.54 75.3619 49.7368 75.8029 49.7368H83.6769C84.3836 49.7368 84.9914 49.2358 85.1262 48.5422L88.3691 31.853C89.1301 27.9354 88.4791 24.9967 86.4348 23.1178C84.484 21.3262 81.2163 20.4554 76.4449 20.4554H71.3307L72.8423 12.6786C72.9262 12.2457 72.8127 11.7979 72.5322 11.4578C72.2517 11.1175 71.8339 10.9204 71.393 10.9204ZM71.393 12.3968L69.5399 21.9317H76.4449C80.7896 21.9317 83.7864 22.6901 85.4358 24.2049C87.0851 25.7206 87.5792 28.1766 86.92 31.5715L83.6769 48.2604H75.8029L78.8863 32.3924C79.2372 30.5872 79.1083 29.3559 78.499 28.6994C77.8895 28.043 76.593 27.7142 74.61 27.7142H68.4151L64.4225 48.2604H56.6715L63.642 12.3968H71.393Z" fill="white"/>
<path d="M99.9087 41.863C102.877 41.863 105.094 41.3155 106.496 40.2362C107.883 39.1683 108.842 37.3177 109.344 34.736C109.812 32.3231 109.634 30.6383 108.814 29.7291C107.975 28.8005 106.163 28.3295 103.427 28.3295H98.6823L96.0522 41.863H99.9087ZM84.3915 58.5337C84.1713 58.5337 83.9621 58.4353 83.8221 58.265C83.6819 58.095 83.6248 57.871 83.6669 57.6548L90.6373 21.7909C90.705 21.4442 91.0086 21.1937 91.3622 21.1937H106.385C111.107 21.1937 114.621 22.4757 116.83 25.0045C119.051 27.5463 119.736 31.0997 118.868 35.5657C118.514 37.3851 117.907 39.0748 117.061 40.5876C116.215 42.1021 115.097 43.5035 113.737 44.7534C112.109 46.2771 110.266 47.3819 108.265 48.032C106.296 48.6735 103.767 48.9988 100.749 48.9988H94.6654L92.9289 57.9363C92.8612 58.2832 92.5576 58.5337 92.204 58.5337H84.3915Z" fill="black"/>
<path d="M99.2908 29.0678H103.427C106.729 29.0678 107.876 29.7924 108.266 30.2243C108.913 30.9413 109.035 32.4531 108.619 34.5958C108.152 36.9952 107.286 38.6962 106.046 39.6514C104.776 40.6293 102.711 41.1249 99.9087 41.1249H96.9478L99.2908 29.0678ZM106.385 20.4556H91.362C90.6553 20.4556 90.0477 20.9566 89.9129 21.6502L82.9424 57.5141C82.8583 57.9469 82.972 58.3945 83.2522 58.7348C83.5327 59.0751 83.9506 59.272 84.3915 59.272H92.204C92.9107 59.272 93.5185 58.771 93.6533 58.0773L95.2741 49.737H100.749C103.845 49.737 106.451 49.3994 108.495 48.7338C110.596 48.051 112.53 46.8931 114.242 45.2924C115.657 43.9905 116.822 42.5291 117.706 40.9482C118.589 39.3667 119.224 37.6032 119.592 35.7066C120.507 31.0055 119.764 27.2413 117.386 24.5188C115.03 21.8227 111.329 20.4556 106.385 20.4556ZM95.1567 42.6012H99.9087C103.059 42.6012 105.405 42.008 106.946 40.8212C108.488 39.6342 109.528 37.6532 110.068 34.8771C110.586 32.2117 110.35 30.3308 109.362 29.2351C108.373 28.1394 106.395 27.5914 103.427 27.5914H98.0738L95.1567 42.6012ZM106.385 21.932C110.904 21.932 114.201 23.118 116.274 25.4903C118.346 27.8626 118.97 31.1738 118.143 35.4251C117.803 37.1763 117.227 38.7774 116.417 40.228C115.606 41.6795 114.546 43.0067 113.237 44.2102C111.677 45.6701 109.944 46.7105 108.037 47.3301C106.13 47.9514 103.702 48.2607 100.749 48.2607H94.0568L92.204 57.7956H84.3915L91.362 21.932H106.385Z" fill="white"/>
</g>
</g>
<defs>
<radialGradient id="paint0_radial_113_59" cx="0" cy="0" r="1" gradientUnits="userSpaceOnUse" gradientTransform="translate(42.8149 14.5499) scale(89.335 89.335)">
<stop stop-color="#AEB2D5"/>
<stop offset="0.3" stop-color="#AEB2D5"/>
<stop offset="0.75" stop-color="#484C89"/>
<stop offset="1" stop-color="#484C89"/>
</radialGradient>
<clipPath id="clip0_113_59">
<rect width="140" height="75.5112" fill="white"/>
</clipPath>
</defs>
</svg>
